<svg width="116" height="39" viewBox="0 0 116 39" fill="none" xmlns="http://www.w3.org/2000/svg">
<path d="M1.33177 21.515C1.33177 19.9964 1.64572 18.6456 2.27362 17.4629C2.91612 16.2655 3.82146 15.3382 4.98964 14.6811C6.15782 14.0094 7.50123 13.6736 9.01987 13.6736C10.9474 13.6736 12.5682 14.1919 13.8824 15.2287C15.1966 16.2509 16.0436 17.6454 16.4232 19.4123H11.8016C11.5242 18.8282 11.1372 18.3828 10.6407 18.0762C10.1588 17.7695 9.59666 17.6162 8.95416 17.6162C7.9612 17.6162 7.16538 17.9739 6.56669 18.6894C5.98259 19.3904 5.69055 20.3322 5.69055 21.515C5.69055 22.7124 5.98259 23.6688 6.56669 24.3843C7.16538 25.0852 7.9612 25.4357 8.95416 25.4357C9.59666 25.4357 10.1588 25.2824 10.6407 24.9757C11.1372 24.6691 11.5242 24.2237 11.8016 23.6396H16.4232C16.0436 25.4065 15.1966 26.8083 13.8824 27.8451C12.5682 28.8672 10.9474 29.3783 9.01987 29.3783C7.50123 29.3783 6.15782 29.0498 4.98964 28.3927C3.82146 27.721 2.91612 26.7937 2.27362 25.6109C1.64572 24.4135 1.33177 23.0482 1.33177 21.515ZM20.6246 15.842C19.8653 15.842 19.252 15.6376 18.7847 15.2287C18.332 14.8052 18.1057 14.2796 18.1057 13.6517C18.1057 13.0092 18.332 12.4762 18.7847 12.0527C19.252 11.6292 19.8653 11.4175 20.6246 11.4175C21.3693 11.4175 21.968 11.6292 22.4206 12.0527C22.8879 12.4762 23.1216 13.0092 23.1216 13.6517C23.1216 14.2796 22.8879 14.8052 22.4206 15.2287C21.968 15.6376 21.3693 15.842 20.6246 15.842ZM22.7492 16.981V29.2688H18.4561V16.981H22.7492ZM33.2326 16.8715C34.649 16.8715 35.7733 17.346 36.6057 18.2952C37.438 19.2297 37.8542 20.5001 37.8542 22.1064V29.2688H33.5611V22.6759C33.5611 21.975 33.3786 21.4274 33.0135 21.0331C32.6485 20.6243 32.1593 20.4198 31.546 20.4198C30.9035 20.4198 30.3997 20.6243 30.0347 21.0331C29.6696 21.4274 29.4871 21.975 29.4871 22.6759V29.2688H25.194V16.981H29.4871V18.7333C29.8667 18.1784 30.3778 17.733 31.0203 17.3971C31.6628 17.0467 32.4002 16.8715 33.2326 16.8715ZM51.95 22.9825C51.95 23.3184 51.9281 23.6542 51.8843 23.9901H43.7582C43.802 24.6618 43.9845 25.1656 44.3058 25.5014C44.6416 25.8227 45.0651 25.9833 45.5762 25.9833C46.2917 25.9833 46.8027 25.662 47.1094 25.0195H51.6872C51.4974 25.8665 51.125 26.6258 50.5701 27.2975C50.0298 27.9546 49.3435 28.473 48.5112 28.8526C47.6789 29.2323 46.7589 29.4221 45.7514 29.4221C44.5394 29.4221 43.4588 29.1666 42.5097 28.6555C41.5751 28.1444 40.8377 27.4143 40.2974 26.4652C39.7717 25.516 39.5089 24.3989 39.5089 23.1139C39.5089 21.8289 39.7717 20.7192 40.2974 19.7846C40.8231 18.8355 41.5532 18.1054 42.4878 17.5943C43.4369 17.0832 44.5248 16.8277 45.7514 16.8277C46.9634 16.8277 48.0366 17.0759 48.9712 17.5724C49.9057 18.0689 50.6358 18.7844 51.1615 19.7189C51.6872 20.6389 51.95 21.7267 51.95 22.9825ZM47.5694 21.9093C47.5694 21.3836 47.3941 20.9747 47.0437 20.6827C46.6932 20.376 46.2552 20.2227 45.7295 20.2227C45.2038 20.2227 44.773 20.3687 44.4372 20.6608C44.1013 20.9382 43.8823 21.3544 43.7801 21.9093H47.5694Z" fill="black"/>
<path d="M77.4277 10.5903V29.2493H72.2403V18.9537L68.7202 29.2493H64.3797L60.8332 18.8743V29.2493H55.6457V10.5903H61.9183L66.6029 22.712L71.1816 10.5903H77.4277ZM79.4242 23.0944C79.4242 21.824 79.6505 20.7142 80.1032 19.7651C80.5705 18.8159 81.1984 18.0858 81.9869 17.5747C82.79 17.0637 83.6807 16.8081 84.6591 16.8081C85.506 16.8081 86.2361 16.9761 86.8494 17.3119C87.4627 17.6478 87.9373 18.1004 88.2732 18.6699V16.9615H92.5662V29.2493H88.2732V27.5408C87.9373 28.1103 87.4554 28.563 86.8275 28.8988C86.2142 29.2347 85.4914 29.4026 84.6591 29.4026C83.6807 29.4026 82.79 29.1471 81.9869 28.636C81.1984 28.1249 80.5705 27.3948 80.1032 26.4456C79.6505 25.4819 79.4242 24.3648 79.4242 23.0944ZM88.2732 23.0944C88.2732 22.3059 88.0541 21.6853 87.6161 21.2326C87.1926 20.7799 86.6669 20.5536 86.039 20.5536C85.3965 20.5536 84.8635 20.7799 84.4401 21.2326C84.0166 21.6707 83.8049 22.2913 83.8049 23.0944C83.8049 23.8829 84.0166 24.5108 84.4401 24.9781C84.8635 25.4308 85.3965 25.6571 86.039 25.6571C86.6669 25.6571 87.1926 25.4308 87.6161 24.9781C88.0541 24.5254 88.2732 23.8975 88.2732 23.0944ZM102.679 29.2493L100.467 26.1609L98.7142 29.2493H94.005L98.1009 22.8754L93.8298 16.9615H98.6485L100.861 20.0498L102.635 16.9615H107.344L103.161 23.2258L107.498 29.2493H102.679Z" fill="url(#paint0_linear)"/>
<defs>
<linearGradient id="paint0_linear" x1="54.1636" y1="19.3122" x2="115.944" y2="19.3122" gradientUnits="userSpaceOnUse">
<stop stop-color="#01021D"/>
<stop offset="0.557292" stop-color="#0F149D"/>
</linearGradient>
</defs>
</svg>
