<svg width="60" height="32" viewBox="0 0 60 32" fill="none" xmlns="http://www.w3.org/2000/svg">
<path d="M33.1094 19.1932C33.221 19.1932 33.3068 19.249 33.3669 19.3606C33.427 19.4722 33.457 19.6138 33.457 19.7854C33.457 20.1974 33.3326 20.442 33.0837 20.5192C32.5687 20.6995 32.0023 20.8025 31.3843 20.8282C31.2212 21.5491 30.8994 22.1285 30.4188 22.5662C29.9381 22.9953 29.3931 23.2099 28.7838 23.2099C28.2688 23.2099 27.8268 23.0854 27.4578 22.8365C27.0973 22.5876 26.8227 22.2572 26.6338 21.8452C26.445 21.4333 26.3506 20.987 26.3506 20.5064C26.3506 19.8541 26.4751 19.2748 26.724 18.7684C26.9729 18.2534 27.3162 17.8543 27.7539 17.5711C28.1916 17.2793 28.6765 17.1334 29.2086 17.1334C29.8609 17.1334 30.3844 17.3608 30.7792 17.8157C31.1826 18.262 31.4186 18.8156 31.4873 19.4765C31.8907 19.4507 32.3713 19.3649 32.9292 19.219C32.9978 19.2018 33.0579 19.1932 33.1094 19.1932ZM28.8868 21.8452C29.1614 21.8452 29.3974 21.7337 29.5948 21.5105C29.8008 21.2874 29.9381 20.9655 30.0068 20.545C29.7407 20.3647 29.5348 20.1287 29.3889 19.8369C29.2515 19.5451 29.1829 19.2361 29.1829 18.91C29.1829 18.7727 29.1957 18.6354 29.2215 18.498H29.1571C28.8138 18.498 28.5263 18.6654 28.2946 19.0001C28.0714 19.3263 27.9599 19.7897 27.9599 20.3905C27.9599 20.8625 28.05 21.223 28.2302 21.4719C28.419 21.7208 28.6379 21.8452 28.8868 21.8452ZM34.811 23.2099C33.9699 23.2099 33.3133 22.9739 32.8413 22.5018C32.3778 22.0212 32.1461 21.3904 32.1461 20.6094C32.1461 19.9142 32.2834 19.3048 32.558 18.7813C32.8327 18.2577 33.1889 17.8543 33.6266 17.5711C34.0643 17.2879 34.5235 17.1463 35.0041 17.1463C35.4761 17.1463 35.8409 17.2879 36.0984 17.5711C36.3644 17.8458 36.4975 18.2019 36.4975 18.6396C36.4975 19.0001 36.4159 19.3048 36.2528 19.5537C36.0984 19.8026 35.8924 19.927 35.6349 19.927C35.4718 19.927 35.3388 19.8884 35.2358 19.8112C35.1414 19.7339 35.0942 19.6266 35.0942 19.4893C35.0942 19.4292 35.1028 19.3606 35.1199 19.2833C35.1371 19.2061 35.15 19.1503 35.1586 19.116C35.2015 18.9872 35.2229 18.8671 35.2229 18.7555C35.2229 18.6439 35.1929 18.5581 35.1328 18.498C35.0813 18.438 35.0041 18.4079 34.9011 18.4079C34.7037 18.4079 34.5192 18.498 34.3475 18.6783C34.1759 18.8499 34.0385 19.0859 33.9355 19.3863C33.8326 19.6867 33.7811 20.0172 33.7811 20.3776C33.7811 21.3732 34.2145 21.871 35.0813 21.871C35.4332 21.871 35.8108 21.7551 36.2142 21.5234C36.6262 21.2831 37.0296 20.9269 37.4244 20.4549C37.5274 20.3347 37.6432 20.2746 37.772 20.2746C37.8835 20.2746 37.9694 20.3261 38.0294 20.4291C38.0981 20.5321 38.1324 20.6737 38.1324 20.854C38.1324 21.1801 38.0509 21.4462 37.8878 21.6521C37.4844 22.1499 36.9995 22.5361 36.4331 22.8108C35.8752 23.0768 35.3345 23.2099 34.811 23.2099ZM38.7782 16.2966C38.4178 16.2966 38.1474 16.2151 37.9672 16.052C37.787 15.8803 37.6968 15.6443 37.6968 15.3439C37.6968 15.0435 37.8127 14.7946 38.0444 14.5973C38.2847 14.3913 38.5808 14.2883 38.9327 14.2883C39.2503 14.2883 39.5078 14.3655 39.7052 14.52C39.9026 14.6745 40.0013 14.8933 40.0013 15.1766C40.0013 15.5199 39.8897 15.7945 39.6665 16.0005C39.4434 16.1979 39.1473 16.2966 38.7782 16.2966ZM38.6752 23.2099C38.1174 23.2099 37.7097 23.0125 37.4522 22.6177C37.2033 22.2229 37.0789 21.6993 37.0789 21.0471C37.0789 20.6608 37.1261 20.1673 37.2205 19.5666C37.3235 18.9572 37.4522 18.3908 37.6067 17.8672C37.684 17.5926 37.787 17.4038 37.9157 17.3008C38.0444 17.1978 38.2504 17.1463 38.5336 17.1463C38.9713 17.1463 39.1902 17.2922 39.1902 17.584C39.1902 17.7986 39.1087 18.2963 38.9456 19.0774C38.7396 20.0214 38.6366 20.6608 38.6366 20.9956C38.6366 21.253 38.671 21.4504 38.7396 21.5878C38.8083 21.7251 38.9241 21.7938 39.0872 21.7938C39.2417 21.7938 39.4348 21.6865 39.6665 21.4719C39.8983 21.2573 40.2072 20.9183 40.5935 20.4549C40.6964 20.3347 40.8123 20.2746 40.9411 20.2746C41.0526 20.2746 41.1385 20.3261 41.1985 20.4291C41.2672 20.5321 41.3015 20.6737 41.3015 20.854C41.3015 21.1973 41.22 21.4633 41.0569 21.6521C40.2072 22.6906 39.4134 23.2099 38.6752 23.2099ZM41.8434 23.2099C41.3113 23.2099 40.8865 23.0168 40.5689 22.6306C40.2514 22.2443 40.0926 21.738 40.0926 21.1114C40.0926 20.4248 40.2514 19.7768 40.5689 19.1675C40.8865 18.5495 41.307 18.056 41.8306 17.687C42.3627 17.3093 42.9248 17.1205 43.517 17.1205C43.7059 17.1205 43.8303 17.1592 43.8904 17.2364C43.959 17.3051 44.0148 17.4338 44.0577 17.6226C44.238 17.5883 44.4268 17.5711 44.6242 17.5711C45.0447 17.5711 45.255 17.7213 45.255 18.0217C45.255 18.2019 45.1906 18.6311 45.0619 19.3091C44.8645 20.2961 44.7658 20.9827 44.7658 21.3689C44.7658 21.4977 44.7958 21.6006 44.8559 21.6779C44.9246 21.7551 45.0104 21.7938 45.1134 21.7938C45.2765 21.7938 45.4739 21.6908 45.7056 21.4848C45.9373 21.2702 46.2506 20.9269 46.6454 20.4549C46.7484 20.3347 46.8642 20.2746 46.993 20.2746C47.1046 20.2746 47.1904 20.3261 47.2505 20.4291C47.3191 20.5321 47.3535 20.6737 47.3535 20.854C47.3535 21.1973 47.2719 21.4633 47.1088 21.6521C46.757 22.0898 46.3836 22.4589 45.9888 22.7593C45.594 23.0597 45.2121 23.2099 44.843 23.2099C44.5598 23.2099 44.2981 23.1155 44.0577 22.9267C43.826 22.7293 43.6501 22.4632 43.5299 22.1285C43.0836 22.8494 42.5215 23.2099 41.8434 23.2099ZM42.3069 21.9096C42.4957 21.9096 42.6759 21.798 42.8476 21.5749C43.0192 21.3517 43.1437 21.0556 43.2209 20.6866L43.6973 18.3178C43.3368 18.3264 43.0021 18.4637 42.6931 18.7298C42.3927 18.9872 42.1524 19.3305 41.9722 19.7597C41.7919 20.1888 41.7018 20.6437 41.7018 21.1243C41.7018 21.3904 41.7533 21.5878 41.8563 21.7165C41.9679 21.8452 42.1181 21.9096 42.3069 21.9096ZM51.1863 20.2746C51.2979 20.2746 51.3837 20.3261 51.4438 20.4291C51.5125 20.5321 51.5468 20.6737 51.5468 20.854C51.5468 21.1973 51.4653 21.4633 51.3022 21.6521C50.9332 22.107 50.5298 22.4804 50.0921 22.7722C49.6629 23.064 49.1737 23.2099 48.6244 23.2099C47.8692 23.2099 47.307 22.8666 46.938 22.18C46.5775 21.4934 46.3973 20.6051 46.3973 19.5151C46.3973 18.468 46.5303 17.275 46.7964 15.9361C47.071 14.5973 47.4701 13.4472 47.9936 12.4859C48.5257 11.5247 49.1566 11.0441 49.8861 11.0441C50.2981 11.0441 50.6199 11.2372 50.8516 11.6234C51.0919 12.001 51.2121 12.546 51.2121 13.2584C51.2121 14.2797 50.9289 15.4641 50.3624 16.8116C49.796 18.159 49.0278 19.4936 48.058 20.8153C48.1181 21.1672 48.2168 21.4204 48.3541 21.5749C48.4914 21.7208 48.6717 21.7938 48.8948 21.7938C49.2467 21.7938 49.5557 21.6951 49.8217 21.4977C50.0878 21.2917 50.4268 20.9441 50.8388 20.4549C50.9417 20.3347 51.0576 20.2746 51.1863 20.2746ZM49.6029 12.3186C49.4055 12.3186 49.1823 12.6748 48.9334 13.3871C48.6845 14.0995 48.4657 14.9835 48.2769 16.0391C48.088 17.0948 47.985 18.1075 47.9679 19.0774C48.5772 18.0732 49.0622 17.069 49.4226 16.0649C49.7831 15.0521 49.9633 14.1295 49.9633 13.297C49.9633 12.6447 49.8432 12.3186 49.6029 12.3186ZM55.3854 20.2746C55.497 20.2746 55.5828 20.3261 55.6429 20.4291C55.7116 20.5321 55.7459 20.6737 55.7459 20.854C55.7459 21.1973 55.6644 21.4633 55.5013 21.6521C55.1323 22.107 54.7289 22.4804 54.2912 22.7722C53.862 23.064 53.3728 23.2099 52.8235 23.2099C52.0683 23.2099 51.5061 22.8666 51.1371 22.18C50.7766 21.4934 50.5964 20.6051 50.5964 19.5151C50.5964 18.468 50.7294 17.275 50.9955 15.9361C51.2701 14.5973 51.6692 13.4472 52.1927 12.4859C52.7248 11.5247 53.3557 11.0441 54.0852 11.0441C54.4971 11.0441 54.819 11.2372 55.0507 11.6234C55.291 12.001 55.4112 12.546 55.4112 13.2584C55.4112 14.2797 55.128 15.4641 54.5615 16.8116C53.9951 18.159 53.2269 19.4936 52.2571 20.8153C52.3172 21.1672 52.4159 21.4204 52.5532 21.5749C52.6905 21.7208 52.8707 21.7938 53.0939 21.7938C53.4458 21.7938 53.7548 21.6951 54.0208 21.4977C54.2869 21.2917 54.6259 20.9441 55.0379 20.4549C55.1408 20.3347 55.2567 20.2746 55.3854 20.2746ZM53.802 12.3186C53.6046 12.3186 53.3814 12.6748 53.1325 13.3871C52.8836 14.0995 52.6648 14.9835 52.4759 16.0391C52.2871 17.0948 52.1841 18.1075 52.167 19.0774C52.7763 18.0732 53.2613 17.069 53.6217 16.0649C53.9822 15.0521 54.1624 14.1295 54.1624 13.297C54.1624 12.6447 54.0423 12.3186 53.802 12.3186ZM59.2112 17.1463C59.4086 17.1463 59.5459 17.172 59.6232 17.2235C59.7004 17.275 59.739 17.3608 59.739 17.481C59.739 17.687 59.6275 18.4208 59.4043 19.6824C59.2069 20.8926 59.091 21.6092 59.0567 21.8324C58.7392 24.0381 58.3014 25.7847 57.7436 27.072C57.1857 28.3594 56.4433 29.0031 55.5164 29.0031C55.0787 29.0031 54.7225 28.8658 54.4479 28.5912C54.1732 28.3251 54.0359 27.9732 54.0359 27.5355C54.0359 27.1321 54.126 26.7202 54.3063 26.2996C54.4951 25.8791 54.8384 25.3941 55.3362 24.8449C55.8425 24.3042 56.5549 23.6819 57.4732 22.9781L57.5118 22.682C57.5719 22.3645 57.6406 21.9096 57.7178 21.3174C57.5462 21.9354 57.3059 22.4074 56.9969 22.7335C56.6879 23.0511 56.3618 23.2099 56.0185 23.2099C55.6323 23.2099 55.3147 23.0339 55.0658 22.682C54.8255 22.3216 54.7053 21.8753 54.7053 21.3432C54.7053 20.6995 54.7483 20.1116 54.8341 19.5794C54.9199 19.0387 55.0615 18.468 55.2589 17.8672C55.3447 17.6097 55.4649 17.4252 55.6194 17.3136C55.7739 17.2021 56.0185 17.1463 56.3532 17.1463C56.542 17.1463 56.6708 17.1763 56.7394 17.2364C56.8167 17.2965 56.8553 17.3866 56.8553 17.5067C56.8553 17.5754 56.8081 17.8071 56.7137 18.2019C56.6278 18.5195 56.5592 18.807 56.5077 19.0645C56.439 19.4164 56.3789 19.7554 56.3275 20.0815C56.276 20.3991 56.2502 20.6608 56.2502 20.8668C56.2502 21.193 56.3403 21.356 56.5206 21.356C56.6493 21.356 56.8081 21.2273 56.9969 20.9698C57.1943 20.7123 57.4003 20.3218 57.6148 19.7983C57.838 19.2748 58.0526 18.6311 58.2585 17.8672C58.3272 17.6097 58.4302 17.4252 58.5675 17.3136C58.7134 17.2021 58.928 17.1463 59.2112 17.1463ZM55.658 27.7544C55.8726 27.7544 56.1129 27.5055 56.3789 27.0077C56.645 26.5099 56.9111 25.6817 57.1771 24.523C56.5163 25.0809 56.0356 25.5873 55.7353 26.0421C55.4434 26.5056 55.2975 26.909 55.2975 27.2523C55.2975 27.3982 55.3233 27.5183 55.3748 27.6127C55.4349 27.7072 55.5293 27.7544 55.658 27.7544Z" fill="white"/>
<path d="M28.0192 8.85092V8.81617L28.0078 8.78332C27.1463 6.28151 25.0327 5.04924 22.3432 4.44059C19.6643 3.83435 16.3631 3.83435 13.0433 3.83435H13.0257C6.24514 3.83435 0.748411 9.33138 0.748411 16.1123V16.1184C0.748411 17.7809 0.748411 19.5478 0.938334 21.2155C1.12842 22.8846 1.51042 24.4729 2.28655 25.771C3.06673 27.0758 4.24057 28.0792 5.99105 28.578C7.734 29.0747 10.0352 29.0675 13.0713 28.3852C16.8113 27.5447 20.5459 24.3312 23.3374 20.5211C26.1294 16.7103 28.0192 12.2465 28.0192 8.85092Z" fill="white" stroke="white" stroke-width="0.415287"/>
<path d="M12.6362 23.4744C11.0529 23.4744 9.785 23.1768 8.83261 22.5815C7.88022 21.9744 7.40402 21.0518 7.40402 19.8137C7.40402 19.1589 7.51712 18.6589 7.74331 18.3136C7.96951 17.9684 8.30284 17.7958 8.74332 17.7958C9.06476 17.7958 9.32666 17.8791 9.52905 18.0458C9.73143 18.2124 9.83262 18.4267 9.83262 18.6886C9.83262 18.9267 9.81476 19.1351 9.77905 19.3136C9.77905 19.3613 9.76714 19.4446 9.74333 19.5636C9.73143 19.6827 9.72548 19.8077 9.72548 19.9387C9.72548 20.4744 9.99334 20.8732 10.5291 21.1351C11.0767 21.397 11.8386 21.528 12.8148 21.528C13.8267 21.528 14.6184 21.3494 15.1898 20.9922C15.7613 20.6232 16.047 20.1113 16.047 19.4565C16.047 19.0517 15.916 18.7065 15.6541 18.4208C15.3922 18.1232 15.0648 17.8791 14.672 17.6886C14.2791 17.4862 13.7255 17.2422 13.0112 16.9565C12.0945 16.5993 11.3445 16.26 10.7612 15.9386C10.1898 15.6172 9.69571 15.1827 9.27904 14.635C8.87428 14.0755 8.67189 13.385 8.67189 12.5636C8.67189 11.7064 8.89809 10.9445 9.35047 10.2778C9.81476 9.61117 10.4755 9.0933 11.3326 8.72425C12.2017 8.3552 13.2196 8.17068 14.3862 8.17068C15.2553 8.17068 16.0529 8.30163 16.7791 8.56354C17.5053 8.81354 18.0827 9.20045 18.5113 9.72426C18.9518 10.2481 19.172 10.8909 19.172 11.6529C19.172 12.4029 19.0589 12.9683 18.8327 13.3493C18.6065 13.7303 18.2732 13.9207 17.8327 13.9207C17.5232 13.9207 17.2613 13.8255 17.047 13.635C16.8446 13.4445 16.7434 13.2183 16.7434 12.9564C16.7434 12.7302 16.7613 12.5219 16.797 12.3314C16.8327 11.9743 16.8505 11.7481 16.8505 11.6529C16.8505 11.1528 16.6065 10.7719 16.1184 10.51C15.6303 10.2481 15.0231 10.1171 14.297 10.1171C13.2731 10.1171 12.4874 10.3076 11.9398 10.6886C11.4041 11.0576 11.1362 11.5814 11.1362 12.26C11.1362 12.7124 11.2731 13.0993 11.5469 13.4207C11.8326 13.7422 12.1838 14.01 12.6005 14.2243C13.0172 14.4386 13.6005 14.6946 14.3505 14.9922C15.2553 15.3612 15.9815 15.6946 16.5291 15.9922C17.0767 16.2898 17.541 16.6946 17.922 17.2065C18.3148 17.7184 18.5113 18.3493 18.5113 19.0994C18.5113 20.5041 17.9756 21.5875 16.9041 22.3494C15.8446 23.0994 14.422 23.4744 12.6362 23.4744Z" fill="url(#paint0_linear)"/>
<defs>
<linearGradient id="paint0_linear" x1="19.2555" y1="0.331543" x2="3.22896" y2="29.9636" gradientUnits="userSpaceOnUse">
<stop stop-color="#F9BC2C"/>
<stop offset="1" stop-color="#F74C06"/>
</linearGradient>
</defs>
</svg>
