<svg width="13" height="14" viewBox="0 0 13 14" fill="none" xmlns="http://www.w3.org/2000/svg">
<path d="M0.133789 1.30287V12.7848C0.133866 12.8097 0.141296 12.8341 0.155147 12.8548C0.168998 12.8755 0.188654 12.8916 0.211649 12.9012C0.234645 12.9108 0.259957 12.9134 0.284411 12.9086C0.308865 12.9039 0.331373 12.892 0.349112 12.8745L6.32761 7.04414L0.349112 1.21318C0.331373 1.19569 0.308865 1.18383 0.284411 1.17908C0.259957 1.17433 0.234645 1.17691 0.211649 1.18648C0.188654 1.19606 0.168998 1.21222 0.155147 1.23292C0.141296 1.25363 0.133866 1.27796 0.133789 1.30287Z" fill="#FD9739"/>
<path d="M8.83408 4.64829L1.33781 0.518297L1.33313 0.515668C1.204 0.445549 1.08129 0.620262 1.18705 0.721934L7.0633 6.34078L8.83408 4.64829Z" fill="#FD9739"/>
<path d="M1.18788 13.366C1.08154 13.4677 1.20424 13.6424 1.33396 13.5723L1.33864 13.5697L8.83433 9.43966L7.06354 7.74658L1.18788 13.366Z" fill="#FD9739"/>
<path d="M11.8605 6.31351L9.76712 5.16064L7.79883 7.04392L9.76712 8.92631L11.8605 7.77432C12.4299 7.45966 12.4299 6.62817 11.8605 6.31351Z" fill="#FD9739"/>
</svg>
